PathFileType	4	(X/Y/Z)	/Users/visionmauri/2_8_1_f_Sports2D/2_8_1_f_Sports2D_m_person00.trc
DataRate	CameraRate	NumFrames	NumMarkers	Units	OrigDataRate	OrigDataStartFrame	OrigNumFrames
30.0	30.0	6	22	m	30.0	131	350
Frame#	Time	Hip			RHip			RKnee			RAnkle			RBigToe			RSmallToe			RHeel			LHip			LKnee			LAnkle			LBigToe			LSmallToe			LHeel			Neck			Head			Nose			RShoulder			RElbow			RWrist			LShoulder			LElbow			LWrist			
		X1	Y1	Z1	X2	Y2	Z2	X3	Y3	Z3	X4	Y4	Z4	X5	Y5	Z5	X6	Y6	Z6	X7	Y7	Z7	X8	Y8	Z8	X9	Y9	Z9	X10	Y10	Z10	X11	Y11	Z11	X12	Y12	Z12	X13	Y13	Z13	X14	Y14	Z14	X15	Y15	Z15	X16	Y16	Z16	X17	Y17	Z17	X18	Y18	Z18	X19	Y19	Z19	X20	Y20	Z20	X21	Y21	Z21	X22	Y22	Z22
131	4.379178605539637	0.546625265828837	0.7774198424833383	0.0301	0.4904137728911175	0.7526730146712516	0.0301	0.5708943814925577	0.46072168609460507	0.129	0.6582598376507901	0.17868488613930475	0.023	0.6055348958562047	0.08915254710154218	0.2179	0.5880835983910239	0.09826976418095232	0.1804	0.7154858003528607	0.15351536354109666	-0.0119	0.5973659622003051	0.7919208702877444	0.0301	0.6180429466325456	0.48549176267929717	0.129	0.8852182553045402	0.3431030958500879	0.023	0.8828873543200774	0.21584070735822156	0.2179	0.9256854452253612	0.2375978857507788	0.1804	0.929018642810041	0.3442178359608522	-0.0119	0.3365298536757324	1.174677476415726	0.0008	0.165540905630945	1.3032028338272406	0.0655	0.22095693715156065	1.1751316074227287	0.1076	0.31063990189489304	1.1089902741026911	-0.01275	0.423594169672212	0.9424597710947329	0.0702	0.41802552838549367	0.7841805599691968	0.1076	0.42838527524267817	1.1697726671517064	-0.01275	0.4970948499105448	0.9443864743876043	0.0702	0.4009463779247911	0.7581956007677741	0.1076
132	4.412607449856734	0.5417481486590218	0.7773711771915476	0.0301	0.4866076940045695	0.7518023964260588	0.0301	0.5583014722809997	0.4601386237719818	0.129	0.6751977257497083	0.1891631476495026	0.023	0.6074665243388154	0.09241660564089645	0.2179	0.6032097552067427	0.10652570236872284	0.1804	0.7087354329264358	0.15616744261100832	-0.0119	0.592161033737521	0.791409914624494	0.0301	0.6108312794223716	0.484100480423458	0.129	0.8535105128465977	0.33215312504677263	0.023	0.836982845108572	0.20405680014121905	0.2179	0.8777442353108491	0.22387197501701459	0.1804	0.896220691086747	0.3300201062699822	-0.0119	0.33456634028524757	1.17573094089544	0.0008	0.16787552427009264	1.3110460282458865	0.0655	0.21863158045953637	1.181423295960188	0.1076	0.3062082072665793	1.1099744777078109	-0.01275	0.41783915102760755	0.9439900891183222	0.0702	0.4092705160481246	0.7810542588515532	0.1076	0.42921754088459424	1.17062122630401	-0.01275	0.5028024569319666	0.9465047129350981	0.0702	0.40390995584924405	0.7601911335766762	0.1076
133	4.44603629417383	0.5385039848501512	0.7771393118514125	0.0301	0.4828105053940347	0.7504306908402264	0.0301	0.5538154116921533	0.4634153479159751	0.129	0.7225826813823467	0.2252874043885304	0.023	0.6130132345928446	0.10084097115704829	0.2179	0.6520856903857651	0.13098713905858822	0.1804	0.7571808837255621	0.19588216449003443	-0.0119	0.5885197932518041	0.7900354740630512	0.0301	0.5994567486054035	0.4830774968891597	0.129	0.7946122309924244	0.29149422147381787	0.023	0.7487204354137008	0.16982044796458898	0.2179	0.7879889866554455	0.18358146958487592	0.1804	0.8374802689769647	0.28072570090739507	-0.0119	0.33243823185279814	1.177932672112687	0.0008	0.1695081313595661	1.315322404588512	0.0655	0.21593546583094295	1.185324292668167	0.1076	0.3029212510635528	1.1121579047053654	-0.01275	0.41046686168610946	0.9436413560420011	0.0702	0.402112005741586	0.7770104910117591	0.1076	0.4308612473404643	1.171493977048239	-0.01275	0.5082633050920125	0.9479654924682401	0.0702	0.40914402824734725	0.7632102668896964	0.1076
134	4.4794651384909265	0.5363708321217197	0.7748488867655169	0.0301	0.47919549041385934	0.7493599478600436	0.0301	0.5537113808167211	0.4653092374621728	0.129	0.7784547812352478	0.2671993625902331	0.023	0.6233762117623144	0.11235282831518556	0.2179	0.7061762476031272	0.15966364511304457	0.1804	0.8190458609359349	0.2435277465004592	-0.0119	0.5855222285027636	0.7875091686800478	0.0301	0.5897561647758451	0.48208931255548865	0.129	0.7270377947536582	0.2407038297181741	0.023	0.6512947376303976	0.12708676938062358	0.2179	0.691915037325446	0.13576318834029757	0.1804	0.77321972990421	0.2215210852734715	-0.0119	0.33135151367859894	1.1796952481518592	0.0008	0.17059638239008365	1.3163686415831006	0.0655	0.21362999361361107	1.1868294887102926	0.1076	0.30257900989450537	1.1138845009389782	-0.01275	0.40780634713161223	0.9416244340626886	0.0702	0.399190184632634	0.773182666124065	0.1076	0.4314603740011966	1.172076221587978	-0.01275	0.5142035885603354	0.9505547718313424	0.0702	0.41465032150221315	0.7665796585497604	0.1076
135	4.512893982808023	0.5352603270218713	0.7718953984356579	0.0301	0.47725948789304057	0.7491454374570022	0.0301	0.5542293653840515	0.46550388902900997	0.129	0.8013998426229276	0.2873600648139133	0.023	0.6312730920155323	0.12147039638966554	0.2179	0.712756292417785	0.17018492988290496	0.1804	0.8459058480020883	0.26551186933405846	-0.0119	0.5830789564776062	0.785814351744339	0.0301	0.586495710459643	0.4820792951163784	0.129	0.6921619645172958	0.21061854495514634	0.023	0.5918979852221771	0.09835074340281852	0.2179	0.6351501904913464	0.10514213518168103	0.1804	0.7442107314710265	0.18610186638848863	-0.0119	0.33191069733379497	1.1799863859611877	0.0008	0.17292560857811043	1.3176514384992903	0.0655	0.21199563936470348	1.1881157508683555	0.1076	0.3044831984940189	1.1137404379399218	-0.01275	0.41023204612899883	0.9387290568470452	0.0702	0.39952554234697213	0.7705378508173288	0.1076	0.43080212471712875	1.1717970379138376	-0.01275	0.5210421237108953	0.9539135393064863	0.0702	0.4188074486527598	0.7686112278487801	0.1076
136	4.5463228271251195	0.5352438380056889	0.7717716161131991	0.0301	0.4777880614960787	0.7495152028677677	0.0301	0.5545086964391043	0.4678479954750856	0.129	0.7841385064914859	0.2794099776210877	0.023	0.6306844139976855	0.12450257064879783	0.2179	0.672790227706602	0.15961006084240137	0.1804	0.8292893894668546	0.2562839833657654	-0.0119	0.582700995975357	0.7862781633682646	0.0301	0.5853259110760907	0.4829014945290185	0.129	0.6931386235568511	0.20376747751775748	0.023	0.578909247236	0.08973268473019527	0.2179	0.623005034103553	0.0957420578683757	0.1804	0.7483871202501733	0.1761568093567239	-0.0119	0.3332339940230797	1.1798419613016335	0.0008	0.17861610040969703	1.3211624057196247	0.0655	0.2102129326040248	1.1898104778076242	0.1076	0.3056946120834051	1.112397397977676	-0.01275	0.4124090177612547	0.9367221177039996	0.0702	0.4007158435801104	0.7709969669648112	0.1076	0.4309258434181887	1.1711710504608066	-0.01275	0.5285876329471799	0.9565468008401375	0.0702	0.42378932697146626	0.7692610260488542	0.1076
